<mxfile host="app.diagrams.net" modified="2023-05-11T12:25:36.631Z" agent="Mozilla/5.0 (Windows NT 10.0; Win64; x64) AppleWebKit/537.36 (KHTML, like Gecko) Chrome/112.0.0.0 Safari/537.36 OPR/98.0.0.0" version="21.2.9" etag="DbKmU9E83C38enA9NZzQ" type="github">
  <diagram name="PÃ¡gina-1" id="-ME7ehJheVCDZSBrX716">
    <mxGraphModel>
      <root>
        <mxCell id="0" />
        <mxCell id="1" parent="0" />
      </root>
    </mxGraphModel>
  </diagram>
</mxfile>
